<svg width="534" height="407" viewBox="0 0 534 407" fill="none" xmlns="http://www.w3.org/2000/svg">
<path d="M14 131.648C39.9359 114.586 65.8266 97.4796 91.7222 80.3764C93.8108 78.9969 98.3221 75.1192 98.8185 77.2945C99.4595 80.1037 97.5607 83.7288 96.4531 86.1899C92.1003 95.8616 86.972 105.279 82.6827 114.977C78.3202 124.842 57.0672 181.084 90.8774 164.708C117.501 151.812 138.821 131.757 159.814 113.436C176.809 98.6037 194.124 83.8966 211.938 69.7299C221.367 62.2318 222.178 66.3803 217.007 75.0532C202.35 99.6341 181.825 121.455 166.065 145.516C162.458 151.024 144.764 175.198 164.713 174.934C176.57 174.777 188.707 169.336 198.421 164.357C228.458 148.962 255.06 128.429 281.212 108.954C318.377 81.2779 355.542 53.3527 391.121 24.2723C396.44 19.9253 411.838 6.42736 406.666 10.8942C392.819 22.8531 379.259 35.0526 365.439 47.0362C315.685 90.1796 267.487 134.272 223.174 181.378C190.634 215.969 156.366 253.607 137.342 295.057C137.113 295.556 131.191 306.637 135.483 308.015C145.144 311.115 170.186 290.188 174.682 287.002C198.747 269.952 221.454 251.597 245.139 234.19C285.126 204.802 326.563 176.763 368.481 149.298C411.955 120.813 456.152 92.327 503.565 68.3991C509.27 65.52 520.7 57.8308 522.573 63.1459C526.577 74.5087 501.251 95.7843 494.864 102.37C452.763 145.778 408.619 187.555 368.819 232.509C347.885 256.153 326.011 281.035 314.582 309.135C313.95 310.689 305.883 328.826 310.865 327.487C318.473 325.441 326.255 319.445 332.323 315.579C355.16 301.031 377.021 285.454 398.725 269.771C424.955 250.819 451.196 231.911 477.799 213.317C481.219 210.926 485.279 207.301 489.288 205.402C495.671 202.378 481.805 215.914 477.545 220.882C454.698 247.527 428.202 271.805 405.399 298.489C388.57 318.181 364.304 343.256 361.046 368.391C359.12 383.254 375.506 370.397 381.998 366.15C413.6 345.475 443.879 323.39 475.349 302.551C484.316 296.613 503.293 278.616 516.829 279.017C523.406 279.212 495.32 321.823 493.681 324.405C481.44 343.682 465.147 365.561 464.197 388.003C464.17 388.652 463.688 399.633 465.633 396.408" stroke="url(#paint0_linear)" stroke-width="20" stroke-linecap="square"/>
<defs>
<linearGradient id="paint0_linear" x1="55.9032" y1="32.8009" x2="483.573" y2="396.987" gradientUnits="userSpaceOnUse">
<stop stop-color="#6383D5"/>
<stop offset="0.510417" stop-color="#DE5DBA" stop-opacity="0.598958"/>
<stop offset="1" stop-color="#FFE600" stop-opacity="0"/>
</linearGradient>
</defs>
</svg>
