<svg width="27" height="33" viewBox="0 0 27 33" fill="none" xmlns="http://www.w3.org/2000/svg">
<path d="M25.1039 9.70588H21.2647V5.17647C21.2647 2.32216 18.9426 0 16.0883 0H15.7647C14.953 0 14.1846 0.188294 13.5 0.522759C12.8155 0.188294 12.0471 0 11.2353 0C8.38102 0 6.05885 2.32216 6.05885 5.17647V9.70588H1.89613L0.83728 33H26.1628L25.1039 9.70588ZM16.0459 1.86295C17.8299 1.86295 19.3236 3.39253 19.3236 5.17647V9.70588H16.4118V5.17647C16.4118 3.96854 15.9948 2.85683 15.2987 1.97521C15.2987 1.97521 15.4057 1.86295 16.0459 1.86295ZM13.5 2.86893C14.0985 3.45639 14.4706 4.27363 14.4706 5.17647V9.70588H12.5294V5.17647C12.5294 4.27363 12.9016 3.45639 13.5 2.86893ZM8.00003 5.17647C8.00003 3.39253 9.45138 1.94118 11.2353 1.94118C11.3936 1.94118 11.5491 1.95315 11.7014 1.97521C11.0053 2.85683 10.5883 3.96854 10.5883 5.17647V9.70588H8.00003V5.17647ZM3.75099 11.6471H6.05885V31.0588H2.86866L3.75099 11.6471ZM8.00003 31.0588V11.6471H10.5883V13.5882H12.5294V11.6471H19.3236V13.5882H21.2647V11.6471H23.2491L24.1314 31.0588H8.00003Z" fill="#1C1C1C"/>
</svg>
