<svg width="85" height="85" viewBox="0 0 85 85" fill="none" xmlns="http://www.w3.org/2000/svg">
<g opacity="0.05" clip-path="url(#clip0)">
<g clip-path="url(#clip1)">
<path d="M40.714 30.2769V42.7281C40.714 42.7405 40.7242 42.7513 40.7372 42.7513H50.1187C50.1318 42.7513 50.142 42.7615 50.142 42.7745V46.4987C50.142 46.5117 50.1522 46.5219 50.1652 46.5219H54.4701C54.4826 46.5219 54.4928 46.5117 54.4928 46.4987V42.7745C54.4928 42.7615 54.5035 42.7513 54.516 42.7513H63.8975C63.9105 42.7513 63.9207 42.7405 63.9207 42.7281V38.1331C63.9207 38.1201 63.9315 38.1099 63.9439 38.1099H88.5557C88.5687 38.1099 88.5789 38.0991 88.5789 38.0866V33.7817C88.5789 33.7687 88.5687 33.7585 88.5557 33.7585H63.9445C63.9315 33.7585 63.9213 33.7477 63.9213 33.7353V30.2774H40.714V30.2769Z" fill="#1C1C1C"/>
<path d="M34.6703 25.9254H88.579V5.39188C88.579 5.37885 88.5688 5.36865 88.5557 5.36865H14.339C14.326 5.36865 14.3158 5.37885 14.3158 5.39188V40.4781H25.3324V44.8708H14.3158V49.1899H25.3324V53.5826H14.3158V57.9017H25.3324V62.2944H14.3158V66.6134H25.3324V71.0061H14.3158V79.6086C14.3158 79.6216 14.326 79.6318 14.339 79.6318H88.5557C88.5688 79.6318 88.579 79.621 88.579 79.6086C88.579 75.1938 84.9999 71.6147 80.585 71.6147H34.6703V67.2633H34.693V30.2768H34.6703V25.9254ZM76.5102 15.6215C77.7295 15.6215 78.6332 16.6187 78.6859 17.7972C78.7385 18.9723 77.6479 19.9729 76.5102 19.9729C75.2903 19.9729 74.3872 18.9763 74.3345 17.7972C74.2818 16.6221 75.3719 15.6215 76.5102 15.6215ZM66.6936 15.6759H70.8273V20.0273H66.6936V15.6759ZM57.9903 15.6759H62.1241V20.0273H57.9903V15.6759Z" fill="#1C1C1C"/>
<path d="M67.5599 54.7586C66.4907 53.8713 65.1054 53.4946 63.7388 53.7099L63.8567 51.4141H41.088L41.5826 60.591C41.7163 63.1129 42.6999 65.5333 44.4257 67.5911L45.0779 68.3691H59.8889L60.541 67.5911C61.0374 66.9996 61.4702 66.3775 61.8408 65.7322L66.7842 62.6925C68.3384 61.8488 69.2993 60.2363 69.2993 58.4629C69.2993 57.0261 68.6653 55.6759 67.5599 54.7586ZM64.6992 58.8731L64.6295 58.9094L63.4334 59.6442L63.506 58.2352L64.4391 58.0029C64.5955 57.9853 64.7105 58.0487 64.7813 58.1071C64.8573 58.1706 64.9479 58.2833 64.9479 58.4629C64.9479 58.6357 64.8527 58.7927 64.6992 58.8731Z" fill="#1C1C1C"/>
</g>
</g>
<defs>
<clipPath id="clip0">
<rect width="85" height="85" fill="white" transform="matrix(-1 0 0 1 85 0)"/>
</clipPath>
<clipPath id="clip1">
<rect width="74.2632" height="74.2632" fill="white" transform="translate(14.3158 5.36865)"/>
</clipPath>
</defs>
</svg>
