<svg width="95" height="95" viewBox="0 0 95 95" fill="none" xmlns="http://www.w3.org/2000/svg">
<g opacity="0.05" clip-path="url(#clip0)">
<g clip-path="url(#clip1)">
<path d="M94.8487 51.514C93.5059 49.7944 91.4845 48.808 89.3026 48.808H82.7778V43.832H33.658V58.6099C33.658 66.9119 37.8284 74.257 44.1832 78.6641H33.6752V83H82.7606V78.6641H72.2526C74.4747 77.1231 76.4295 75.2231 78.0324 73.048H82.7916C88.3633 73.048 93.1983 69.2729 94.5497 63.8677L96.129 57.5509C96.658 55.4341 96.1914 53.2339 94.8487 51.514ZM91.9226 56.4993L90.3433 62.8161C89.4753 66.2876 86.3701 68.7121 82.7916 68.7121H80.5854C81.9925 65.6323 82.7778 62.2112 82.7778 58.6099V53.144H89.3026C90.14 53.144 90.9157 53.5226 91.4311 54.1826C91.9465 54.8426 92.1255 55.6869 91.9226 56.4993Z" fill="#1C1C1C"/>
<path d="M58.2427 26.096C54.3034 26.096 51.0985 29.3009 51.0985 33.2402V38.216H55.4345V33.2402C55.4345 31.6917 56.6942 30.432 58.2427 30.432H78.146C87.5732 30.432 95.2426 22.7626 95.2426 13.3354V9H90.9066V13.3354C90.9066 20.3717 85.1823 26.096 78.146 26.096H58.2427Z" fill="#1C1C1C"/>
<path d="M45.4825 33.8806C45.4825 26.8443 51.2068 21.12 58.2432 21.12H78.1464C82.0858 21.12 85.2906 17.915 85.2906 13.9756V9H80.9547V13.9758C80.9547 15.5243 79.6949 16.7842 78.1464 16.7842H58.2432C48.816 16.7842 41.1466 24.4536 41.1466 33.8808V38.216H45.4825V33.8806Z" fill="#1C1C1C"/>
</g>
</g>
<defs>
<clipPath id="clip0">
<rect width="95" height="95" fill="white" transform="matrix(-1 0 0 1 95 0)"/>
</clipPath>
<clipPath id="clip1">
<rect width="74" height="74" fill="white" transform="translate(28 9)"/>
</clipPath>
</defs>
</svg>
