<svg width="140" height="56" viewBox="0 0 140 56" fill="none" xmlns="http://www.w3.org/2000/svg">
<path d="M15.3635 0.391602C21.9346 0.391602 25.5865 2.58576 25.5865 7.58938C25.5865 10.3524 24.7259 12.4305 21.6322 13.6959C23.1777 14.053 24.5428 14.9532 25.4782 16.2322C26.4135 17.5111 26.8565 19.0834 26.7263 20.6615C26.7263 27.1395 21.5043 28.9273 15.096 28.9273H0V0.391602H15.3635ZM13.5376 8.03054H10.8394V11.4553H13.5376C13.7713 11.4772 14.007 11.4487 14.2287 11.3718C14.4505 11.2949 14.6531 11.1714 14.8229 11.0096C14.9927 10.8478 15.1257 10.6515 15.213 10.434C15.3002 10.2165 15.3397 9.98277 15.3287 9.74872C15.3395 9.51421 15.2999 9.2801 15.2128 9.06206C15.1256 8.84402 14.9928 8.64708 14.8233 8.48441C14.6537 8.32174 14.4513 8.1971 14.2295 8.11883C14.0078 8.04055 13.7719 8.01045 13.5376 8.03054ZM13.9563 17.4341H10.8394V21.091H13.9563C14.2057 21.1177 14.458 21.0889 14.6949 21.0067C14.9319 20.9245 15.1476 20.7909 15.3266 20.6155C15.5057 20.4401 15.6436 20.2273 15.7304 19.9923C15.8172 19.7574 15.8508 19.5062 15.8288 19.2568C15.849 19.0082 15.814 18.7583 15.7264 18.5249C15.6388 18.2914 15.5006 18.0801 15.3218 17.906C15.143 17.7319 14.9279 17.5994 14.6918 17.5178C14.4558 17.4362 14.2047 17.4077 13.9563 17.4341Z" fill="white"/>
<path d="M28.4475 28.8693V0.391602H39.2985V9.94608H40.7639L45.8115 0.391602H57.7208L49.2773 14.6711L57.7208 28.8693H45.8115L40.4383 19.3032H39.2753V28.8693H28.4475Z" fill="white"/>
<path d="M68.1531 29.5194C66.2339 29.4724 64.3293 29.1718 62.4892 28.6255V20.0346C63.5786 20.4074 64.7219 20.5995 65.8736 20.6034C66.4501 20.6795 67.0364 20.5899 67.5637 20.3452C68.091 20.1006 68.5375 19.7109 68.8509 19.2219L69.258 18.3744L58.6628 0.391602H70.0721L74.4334 10.1899L77.9225 0.391602H89.2969L79.0855 22.3216C76.6316 27.4413 73.4914 29.5194 68.1531 29.5194Z" fill="white"/>
<path d="M101.183 0.0198824C104.257 -0.104122 107.327 0.352785 110.231 1.36656V10.7237C108.206 9.6618 105.959 9.0892 103.672 9.05194C100.253 9.05194 97.1473 10.5612 97.1473 14.8566C97.1473 18.5135 100.171 20.0576 103.428 20.0576C106.358 20.0576 108.812 19.57 110.162 18.5135V28.0332C107.596 29.1449 104.816 29.6761 102.02 29.5888C93.8095 29.5656 86.0637 25.3282 86.0637 14.8334C85.9939 3.96705 93.321 0.0198824 101.183 0.0198824Z" fill="white"/>
<path d="M27.1333 32.7121H16.0962L17.5384 39.6777H16.166L10.0485 32.7121H0L18.2478 53.8295H28.4825L22.2254 46.6549H23.2605L34.6 53.8295H45.8348L28.5522 43.2069L27.1333 32.7121ZM39.1474 32.2129C29.5524 32.2129 28.9593 36.996 34.4953 43.1721C37.6072 46.6057 41.3891 49.3684 45.6089 51.2909C49.8288 53.2134 54.3976 54.255 59.0351 54.3519C68.8161 54.3519 69.293 49.4179 63.6058 43.1721C60.4751 39.7996 56.6959 37.0911 52.4937 35.2082C48.2916 33.3253 43.7525 32.3066 39.1474 32.2129ZM52.4524 47.0148C50.9914 46.938 49.5628 46.5564 48.2587 45.8945C46.9546 45.2326 45.804 44.3052 44.8811 43.1721C42.6248 40.6529 43.1017 39.3527 45.5673 39.3527C47.0285 39.4325 48.4574 39.8131 49.7643 40.4703C51.0712 41.1276 52.2279 42.0474 53.1618 43.1721C55.4413 45.7146 54.9761 47.0148 52.4524 47.0148ZM76.9805 33.8963L74.4335 31.1797H65.5364L68.0485 33.8963C60.6749 34.4303 59.0583 37.7738 63.9779 43.1837C68.8975 48.5937 76.7712 52.0649 85.2962 52.6105L87.9013 55.4432H96.9962L94.3677 52.6105C101.846 52.0649 103.358 48.6401 98.229 43.1837C93.1 37.7273 85.3427 34.4303 76.9805 33.8963ZM73.8985 43.1837C72.5959 41.7674 71.9679 40.3859 73.8985 40.084L79.6322 46.3066C77.4071 45.9795 75.373 44.8674 73.8985 43.1721V43.1837ZM88.3084 46.3066L82.5747 40.0724C84.8222 40.3779 86.8854 41.4776 88.3898 43.1721C89.6342 44.6001 90.2855 45.9816 88.3084 46.295V46.3066ZM123.06 47.6185H113.976L112.243 45.7958H121.548L116.896 40.4439H107.091L105.382 38.6445H115.337L110.196 32.6889H89.6691L109.557 53.8295H128.386L123.06 47.6185Z" fill="white"/>
<path d="M121.106 18.3741L118.629 15.9129V6.76475L113.86 1.18066V30.6103L118.629 36.206V25.6415L121.036 28.0795V38.9922L126.025 44.7969V15.1119L121.071 9.30719L121.106 18.3741ZM134.806 24.6547C130.538 20.011 127.479 22.4025 127.037 30.4594C126.595 38.5163 127.433 46.6196 131.689 51.4491C135.946 56.2785 139.749 52.61 139.97 44.7969C140.203 36.5427 139.144 29.3449 134.806 24.6547ZM135.271 39.6191C135.085 42.9742 134.26 43.8682 133.143 42.6144C132.027 41.3605 131.422 38.8878 131.608 35.5559C131.794 32.224 132.585 31.3649 133.748 32.5258C134.911 33.6868 135.457 36.2757 135.271 39.6191Z" fill="white"/>
</svg>
