<svg width="28" height="28" viewBox="0 0 28 28" fill="none" xmlns="http://www.w3.org/2000/svg">
<path d="M14 0C9.92912 0 6.61719 3.31193 6.61719 7.38281C6.61719 11.4537 9.92912 14.7656 14 14.7656C18.0709 14.7656 21.3828 11.4537 21.3828 7.38281C21.3828 3.31193 18.0709 0 14 0ZM14 13.125C10.8338 13.125 8.25781 10.5491 8.25781 7.38281C8.25781 4.21657 10.8338 1.64062 14 1.64062C17.1662 1.64062 19.7422 4.21657 19.7422 7.38281C19.7422 10.5491 17.1662 13.125 14 13.125Z" fill="black"/>
<path d="M16.2877 16.4609H11.7122C7.92772 16.4609 4.19284 18.2083 1.69531 21.9547V28H26.3047V21.9547C23.8108 18.2137 20.0769 16.4609 16.2877 16.4609ZM24.6641 26.3594H24.6641H3.33594V22.4567C5.2517 19.7249 8.36456 18.1016 11.7123 18.1016H16.2878C19.6355 18.1016 22.7483 19.7249 24.6641 22.4567V26.3594Z" fill="black"/>
</svg>
