<svg width="20" height="20" viewBox="0 0 20 20" fill="none" xmlns="http://www.w3.org/2000/svg">
<path d="M20 7.60238V12.3976L18.155 12.68C18.0208 13.0882 17.8556 13.4866 17.6611 13.8709L18.7664 15.3757L15.3757 18.7664L13.8708 17.6611C13.4866 17.8556 13.0882 18.0208 12.68 18.155L12.3976 20H7.60238L7.32 18.155C6.91176 18.0208 6.51336 17.8556 6.12914 17.6611L4.6243 18.7664L1.23355 15.3757L2.33887 13.8708C2.14438 13.4866 1.97918 13.0882 1.84496 12.68L0 12.3976V7.60238L1.845 7.32C1.97918 6.91176 2.14441 6.51336 2.33891 6.12914L1.23359 4.6243L4.62434 1.23355L6.12918 2.33887C6.5134 2.14441 6.9118 1.97918 7.32004 1.84496L7.60238 0H12.3976L12.68 1.845C13.0882 1.97918 13.4866 2.14441 13.8709 2.33891L15.3757 1.23359L18.7664 4.62434L17.6611 6.12918C17.8556 6.5134 18.0208 6.9118 18.155 7.32004L20 7.60238ZM10 6.33238C7.97766 6.33238 6.33238 7.97766 6.33238 10C6.33238 12.0223 7.97766 13.6676 10 13.6676C12.0223 13.6676 13.6676 12.0223 13.6676 10C13.6676 7.97766 12.0223 6.33238 10 6.33238Z" fill="#1C1C1C"/>
</svg>
