<svg width="18" height="18" viewBox="0 0 18 18" fill="none" xmlns="http://www.w3.org/2000/svg">
<path d="M18 11.1579V6.84214L16.3395 6.588C16.2187 6.22058 16.07 5.86202 15.895 5.51623L16.8898 4.16187L13.8381 1.1102L12.4837 2.10498C12.1379 1.92994 11.7794 1.78126 11.412 1.66046L11.1579 0H6.84214L6.588 1.6605C6.22058 1.78126 5.86202 1.92997 5.51623 2.10502L4.16187 1.11023L1.1102 4.1619L2.10498 5.51626C1.92994 5.86206 1.78126 6.22062 1.66046 6.58804L0 6.84214V11.1579L1.6605 11.412C1.78126 11.7794 1.92997 12.138 2.10502 12.4838L1.11023 13.8381L4.1619 16.8898L5.51626 15.895C5.86206 16.07 6.22062 16.2187 6.58804 16.3395L6.84214 18H11.1579L11.412 16.3395C11.7794 16.2187 12.138 16.07 12.4838 15.895L13.8381 16.8898L16.8898 13.8381L15.895 12.4837C16.07 12.1379 16.2187 11.7794 16.3395 11.412L18 11.1579ZM15.5154 10.4712L15.4238 10.799C15.2809 11.3104 15.0757 11.8051 14.814 12.2694L14.6468 12.566L15.5037 13.7327L13.7327 15.5037L12.566 14.6468L12.2694 14.814C11.805 15.0757 11.3103 15.2809 10.799 15.4238L10.4711 15.5154L10.2523 16.9453H7.7477L7.52882 15.5154L7.20098 15.4238C6.68964 15.2809 6.19492 15.0757 5.73061 14.814L5.43396 14.6468L4.2673 15.5037L2.49627 13.7327L3.35317 12.566L3.18596 12.2694C2.92426 11.805 2.71909 11.3103 2.57618 10.799L2.48456 10.4711L1.05469 10.2523V7.7477L2.4846 7.52882L2.57621 7.20098C2.71913 6.68964 2.92426 6.19492 3.186 5.73061L3.3532 5.43396L2.4963 4.2673L4.26734 2.49627L5.434 3.35317L5.73064 3.18596C6.19495 2.92426 6.68967 2.71909 7.20102 2.57618L7.52885 2.48456L7.7477 1.05469H10.2523L10.4712 2.4846L10.799 2.57621C11.3104 2.71913 11.8051 2.92426 12.2694 3.186L12.566 3.3532L13.7327 2.4963L15.5037 4.26734L14.6468 5.434L14.814 5.73064C15.0757 6.19495 15.2809 6.68967 15.4238 7.20102L15.5154 7.52885L16.9453 7.7477V10.2523L15.5154 10.4712Z" fill="black"/>
<path d="M9.00008 4.64446C6.59841 4.64446 4.64453 6.59834 4.64453 9C4.64453 11.4017 6.59841 13.3555 9.00008 13.3555C11.4017 13.3555 13.3556 11.4017 13.3556 9C13.3556 6.59834 11.4017 4.64446 9.00008 4.64446ZM9.00008 12.3009C7.18 12.3009 5.69922 10.8201 5.69922 9C5.69922 7.17989 7.17997 5.69914 9.00008 5.69914C10.8202 5.69914 12.3009 7.17989 12.3009 9C12.3009 10.8201 10.8202 12.3009 9.00008 12.3009Z" fill="black"/>
</svg>
