<svg width="21" height="27" viewBox="0 0 21 27" fill="none" xmlns="http://www.w3.org/2000/svg">
<path d="M19.9942 7.94118H16.853V4.23529C16.853 1.89995 14.9531 0 12.6177 0H12.353C11.6889 0 11.0601 0.154059 10.5001 0.427712C9.94001 0.154059 9.31129 0 8.64714 0C6.3118 0 4.41184 1.89995 4.41184 4.23529V7.94118H1.00598L0.139648 27H20.8606L19.9942 7.94118ZM12.5831 1.52423C14.0427 1.52423 15.2648 2.77571 15.2648 4.23529V7.94118H12.8824V4.23529C12.8824 3.24699 12.5412 2.33741 11.9717 1.61608C11.9717 1.61608 12.0592 1.52423 12.5831 1.52423ZM10.5001 2.34731C10.9897 2.82796 11.2942 3.49661 11.2942 4.23529V7.94118H9.70596V4.23529C9.70596 3.49661 10.0104 2.82796 10.5001 2.34731ZM6.00008 4.23529C6.00008 2.77571 7.18755 1.58824 8.64714 1.58824C8.77663 1.58824 8.90385 1.59803 9.02847 1.61608C8.45893 2.33741 8.11773 3.24699 8.11773 4.23529V7.94118H6.00008V4.23529ZM2.52359 9.52941H4.41184V25.4118H1.80168L2.52359 9.52941ZM6.00008 25.4118V9.52941H8.11773V11.1176H9.70596V9.52941H15.2648V11.1176H16.853V9.52941H18.4766L19.1985 25.4118H6.00008Z" fill="black"/>
</svg>
