<svg width="95" height="95" viewBox="0 0 95 95" fill="none" xmlns="http://www.w3.org/2000/svg">
<g opacity="0.05" clip-path="url(#clip0)">
<path d="M89.8583 12.6626L86.1437 23.8064H43.1242L39.4096 12.6626H89.8583Z" fill="#1C1C1C"/>
<path d="M43.5547 38.665H85.7136L95 82.6831H34.2681L43.5547 38.665Z" fill="#1C1C1C"/>
<path d="M44.2047 29.3789H85.0653V33.0936H44.2047V29.3789Z" fill="#1C1C1C"/>
<path d="M2.91029 13.7579C4.75982 12.3787 7.08862 11.965 9.30034 12.6231H9.30015L31.2025 19.1417V34.2417L5.17192 26.4946C2.12673 25.5882 -0.000190735 22.7362 -0.000190735 19.5589C-5.72205e-06 17.2516 1.06095 15.1371 2.91029 13.7579Z" fill="#1C1C1C"/>
<path d="M36.1848 20.6078L38.6318 27.9488V35.0066L38.3568 36.3099L34.9173 35.3474V20.2456L36.1848 20.6078Z" fill="#1C1C1C"/>
</g>
<defs>
<clipPath id="clip0">
<rect width="95" height="95" fill="white" transform="matrix(-1 0 0 1 95 0)"/>
</clipPath>
</defs>
</svg>
